<?xml version="1.0" standalone="no"?>
<!DOCTYPE svg PUBLIC "-//W3C//DTD SVG 20010904//EN"
 "http://www.w3.org/TR/2001/REC-SVG-20010904/DTD/svg10.dtd">
<svg version="1.0" xmlns="http://www.w3.org/2000/svg"
 width="921.000000pt" height="1152.000000pt" viewBox="0 0 921.000000 1152.000000"
 preserveAspectRatio="xMidYMid meet">

<g transform="translate(0.000000,1152.000000) scale(0.100000,-0.100000)"
fill="#000000" stroke="none">
<path d="M3262 11377 c-6 -7 -51 -119 -100 -248 -50 -128 -95 -245 -100 -259
-42 -99 -438 -1184 -564 -1545 -132 -380 -163 -499 -273 -1050 -163 -819 -161
-807 -175 -968 -22 -251 31 -452 173 -655 l53 -77 -45 -23 c-25 -12 -58 -33
-72 -45 -53 -48 -512 -613 -591 -729 -56 -81 -72 -144 -66 -252 10 -144 83
-277 177 -319 38 -17 65 -21 151 -20 58 1 129 8 159 16 53 15 54 15 100 -14
46 -30 46 -30 44 -82 -2 -29 10 -245 25 -482 24 -359 26 -433 15 -446 -7 -8
-13 -28 -13 -42 0 -40 -26 -60 -177 -134 -167 -82 -244 -150 -299 -267 -54
-113 -63 -272 -24 -417 9 -31 8 -78 -1 -188 -16 -193 -18 -713 -2 -763 9 -31
8 -48 -5 -95 -11 -39 -16 -96 -16 -173 0 -125 18 -195 69 -272 l25 -38 -35
-32 c-44 -41 -51 -68 -65 -261 -17 -230 5 -462 53 -575 23 -55 218 -244 325
-316 363 -243 914 -387 1712 -445 536 -40 1587 -40 2065 -1 611 51 1074 170
1512 391 256 128 345 200 373 300 20 70 -19 689 -51 803 -12 44 -49 86 -77 86
-16 0 -15 7 14 67 67 137 99 319 83 466 -11 95 -21 132 -45 158 -12 13 -11 20
6 54 19 37 20 60 20 373 0 318 1 335 21 374 52 101 71 258 49 395 -26 165
-115 374 -192 452 -60 62 -110 84 -190 85 -38 0 -68 2 -68 4 0 9 54 196 71
247 24 70 29 176 10 251 -9 39 -10 101 -2 270 10 223 7 244 -27 244 -13 0 -13
2 1 18 36 39 57 106 57 180 0 72 -23 211 -41 244 -12 23 -12 23 57 -8 71 -31
114 -27 203 17 116 58 170 158 157 291 -8 85 -38 167 -74 200 -25 23 -91 62
-442 260 -125 71 -291 160 -382 205 l-58 29 36 52 c81 122 142 302 151 447 4
77 -3 137 -51 425 -30 184 -71 434 -91 555 -79 484 -113 649 -174 833 -64 193
-170 497 -231 662 -21 58 -72 200 -113 315 -42 116 -85 235 -96 265 -11 30
-57 156 -101 280 -171 477 -325 881 -343 901 -13 14 -29 19 -50 17 -35 -3 -15
22 -455 -594 -199 -278 -253 -355 -420 -593 -35 -50 -67 -91 -72 -91 -4 0 -43
9 -86 20 -96 24 -261 26 -379 5 -44 -8 -83 -15 -87 -15 -5 0 -39 46 -76 103
-94 142 -263 388 -411 602 -68 99 -158 230 -199 290 -184 271 -203 295 -227
295 -12 0 -27 -6 -33 -13z m183 -343 c55 -84 224 -341 375 -571 152 -230 286
-434 298 -454 l21 -35 -39 -65 c-22 -35 -39 -68 -40 -72 0 -5 32 21 71 57 43
39 86 70 108 76 84 24 182 32 316 27 184 -7 229 -21 306 -96 32 -31 59 -55 59
-53 0 2 -16 35 -36 72 l-35 68 118 178 c120 180 140 209 386 564 75 107 184
266 244 352 59 87 111 158 114 158 3 0 23 -46 44 -102 20 -57 52 -141 70 -188
39 -100 195 -530 365 -1005 67 -187 153 -428 192 -535 135 -378 199 -576 224
-695 53 -260 155 -840 220 -1260 43 -275 33 -411 -44 -593 -99 -236 -314 -420
-657 -563 -133 -55 -246 -95 -325 -114 -36 -9 -72 -18 -81 -21 -16 -4 -101 92
-172 196 -16 22 -40 48 -53 57 -21 14 -26 14 -47 0 -28 -18 -77 -187 -77 -265
l0 -49 -57 -11 c-143 -26 -138 -27 -216 14 -46 23 -80 35 -91 31 -9 -4 -26
-27 -36 -51 -19 -42 -39 -56 -83 -56 -15 0 -9 11 26 53 188 222 327 661 331
1047 1 134 -1 160 -17 183 -23 36 -42 35 -225 -7 -317 -74 -470 -86 -844 -67
-138 7 -245 8 -263 3 -30 -9 -30 -9 -29 -78 3 -126 122 -541 204 -710 27 -55
75 -136 108 -180 56 -75 173 -195 237 -242 l30 -22 -95 5 c-597 37 -1221 165
-1597 328 -254 110 -445 311 -532 561 -72 205 -79 379 -27 688 68 398 213
1116 261 1288 79 285 405 1203 759 2135 42 110 79 207 82 215 7 18 13 10 149
-196z m1689 -3830 c30 -11 14 -173 -45 -474 -54 -277 -156 -506 -280 -629
-121 -119 -240 -106 -396 43 -171 162 -335 485 -387 761 -22 120 -28 173 -21
195 6 19 15 20 308 19 l302 -2 215 45 c213 45 274 54 304 42z m1630 -691 c22
-7 81 -35 130 -62 726 -385 698 -368 730 -433 55 -109 17 -250 -83 -309 -81
-48 -214 -33 -266 29 -117 142 -272 253 -309 223 -9 -7 -16 -21 -16 -31 0 -9
-2 -19 -5 -22 -3 -3 -110 48 -238 112 l-232 118 -165 35 c-157 33 -164 35
-135 47 170 74 286 138 348 189 12 11 51 44 87 74 70 59 70 60 154 30z m-4255
-152 c62 -42 209 -118 284 -146 26 -10 47 -21 47 -25 0 -3 -34 -14 -75 -23
-74 -16 -78 -18 -173 -107 l-97 -90 -17 40 c-24 56 -51 66 -121 46 -66 -19
-145 -86 -172 -145 -10 -23 -21 -41 -25 -41 -4 0 -29 9 -55 21 -82 36 -150 9
-177 -70 -7 -21 -12 -95 -12 -176 l-1 -140 38 -85 c20 -47 37 -91 37 -98 0
-18 -62 -42 -107 -42 -62 0 -153 26 -179 51 -42 39 -86 141 -91 211 -11 135
11 169 402 623 99 116 190 224 203 240 13 17 51 44 84 61 l62 32 44 -50 c25
-27 70 -66 101 -87z m3031 -95 c164 -179 270 -359 270 -459 0 -61 -32 -91 -44
-42 -7 27 -115 145 -134 145 -16 0 -15 -65 2 -112 8 -21 10 -38 6 -38 -5 0
-29 23 -54 51 -87 97 -138 216 -139 323 0 68 30 189 45 180 5 -4 27 -25 48
-48z m631 -140 c106 -15 208 -37 264 -58 17 -6 139 -64 272 -129 l241 -117 7
-63 c3 -35 5 -136 3 -224 -3 -158 -3 -161 25 -221 16 -34 45 -78 65 -97 l37
-36 -5 -183 -5 -183 -95 -8 c-80 -6 -291 -46 -335 -63 -20 -8 -6 83 20 136 25
50 69 154 79 186 4 14 1 28 -9 38 -14 13 -44 16 -189 16 -95 0 -287 3 -427 7
l-254 6 3 248 4 249 -26 11 c-26 12 -26 13 -7 33 65 72 69 175 9 296 -21 41
-45 85 -53 97 -16 21 -15 22 42 38 32 9 69 20 83 25 38 13 133 11 251 -4z
m-3006 -40 c131 -37 311 -76 440 -96 136 -20 125 -14 120 -78 -5 -52 -19 -249
-45 -591 -5 -74 -10 -138 -10 -142 0 -4 -121 -5 -268 -2 l-268 6 -22 -28 -22
-28 -73 22 c-122 36 -172 26 -265 -54 -77 -67 -87 -98 -87 -268 1 -136 0 -147
-17 -141 -9 3 -45 11 -80 18 l-63 13 -6 239 c-4 131 -7 261 -8 287 -1 39 -5
49 -22 55 -19 7 -17 10 21 36 28 18 49 43 62 73 l20 45 -28 189 -28 189 30 31
c51 54 208 186 229 192 23 6 138 50 175 66 34 14 63 10 215 -33z m1931 -75
c83 -54 141 -116 163 -176 34 -92 35 -335 2 -335 -5 0 -11 19 -15 43 -12 76
-26 116 -44 126 -29 15 -43 -2 -51 -60 l-8 -54 -51 105 c-59 119 -92 223 -92
292 0 50 14 98 28 98 5 0 35 -17 68 -39z m-2658 -63 c18 -60 21 -82 33 -268
16 -232 16 -236 -7 -261 -42 -47 -50 -42 -51 28 -3 120 -66 273 -143 348 l-39
38 19 36 c33 64 94 110 147 111 27 0 33 -5 41 -32z m1702 -24 c290 -23 510
-28 650 -15 69 7 133 14 142 17 13 4 18 -4 23 -43 15 -113 91 -312 163 -428
20 -32 27 -52 20 -56 -7 -5 -10 -52 -9 -140 l2 -132 -238 6 c-131 4 -431 12
-668 18 -236 6 -432 13 -435 15 -5 6 29 730 37 762 5 21 9 22 67 17 33 -3 144
-12 246 -21z m1398 -187 c20 -21 57 -51 82 -67 l46 -29 -7 -83 c-4 -46 -11
-158 -15 -250 l-7 -168 -66 0 -67 0 -17 258 c-10 141 -20 304 -22 362 l-5 105
20 -45 c12 -25 38 -62 58 -83z m1580 40 c72 -57 82 -74 117 -191 29 -104 40
-197 30 -263 l-7 -48 -14 45 c-17 55 -58 109 -73 95 -5 -5 -11 -44 -12 -85 -3
-116 -7 -120 -69 -64 -61 55 -75 115 -59 249 6 58 10 153 7 215 -4 80 -3 108
6 103 6 -3 39 -29 74 -56z m-5020 33 c96 -43 153 -109 199 -227 33 -86 38
-219 10 -270 -10 -18 -19 -33 -22 -33 -2 0 -9 19 -15 43 -14 52 -77 150 -93
144 -7 -2 -12 -21 -13 -43 0 -21 -6 -55 -14 -75 -10 -27 -10 -44 -2 -68 6 -17
7 -31 2 -31 -16 0 -92 95 -124 155 l-31 60 0 160 c0 211 9 228 103 185z m3301
-491 l1 -167 -25 -4 c-14 -3 -25 -2 -25 1 0 4 -4 42 -10 86 -5 44 -11 95 -12
114 -1 18 -7 35 -13 36 -5 2 -23 6 -38 10 l-29 6 41 30 c46 32 54 49 79 154
l17 70 7 -85 c3 -47 6 -160 7 -251z m367 235 c20 -5 21 -12 21 -122 1 -113 0
-115 -13 -72 -12 43 -13 42 -9 -53 2 -53 7 -102 11 -109 4 -6 3 -8 -3 -5 -16
10 -33 108 -29 168 7 91 18 154 30 161 6 4 7 10 3 15 -5 4 -12 1 -18 -7 -8
-13 -10 -13 -19 0 -19 29 -13 35 26 24z m-29 -121 c-3 -10 -5 -4 -5 12 0 17 2
24 5 18 2 -7 2 -21 0 -30z m-10 -95 c-2 -13 -4 -5 -4 17 -1 22 1 32 4 23 2
-10 2 -28 0 -40z m-510 -50 c-3 -8 -6 -5 -6 6 -1 11 2 17 5 13 3 -3 4 -12 1
-19z m0 -75 c-3 -10 -5 -2 -5 17 0 19 2 27 5 18 2 -10 2 -26 0 -35z m531 -38
c-4 -51 6 -78 14 -37 3 14 5 13 10 -6 3 -12 2 -20 -3 -16 -5 3 -9 -2 -9 -11 0
-9 5 -13 10 -10 6 3 10 1 10 -4 0 -6 -3 -11 -7 -11 -5 0 -9 -10 -10 -22 -3
-29 -14 -238 -14 -258 0 -8 0 -46 -1 -85 0 -38 0 -90 0 -115 1 -41 0 -43 -10
-20 -9 20 -12 22 -15 8 -2 -9 1 -26 6 -37 6 -11 11 -32 10 -48 l-1 -28 -8 25
c-7 21 -8 18 -9 -19 -1 -33 2 -42 13 -38 19 8 26 -44 24 -188 -1 -66 -3 -96
-5 -67 -2 28 -9 52 -14 52 -7 0 -8 -12 -4 -30 7 -32 -1 -70 -15 -70 -11 0 -1
77 16 123 8 20 13 61 12 90 l-1 52 -7 -45 c-7 -48 -11 -46 -15 10 -1 19 -7 53
-12 75 -5 23 -6 72 -2 110 4 39 6 80 3 93 -2 12 -6 34 -9 48 -4 16 -2 23 5 19
5 -3 10 3 10 14 0 11 5 23 10 26 14 8 13 45 -1 45 -7 0 -8 7 -3 18 4 9 9 62
11 117 2 55 5 117 5 137 2 42 -8 60 -23 38 -9 -15 -9 -13 6 83 9 60 28 45 23
-18z m-1943 -95 c248 -6 608 -15 800 -20 193 -5 500 -13 683 -16 l332 -7 0
-62 c0 -34 -3 -96 -6 -137 l-7 -74 -68 -24 c-95 -32 -107 -51 -45 -74 23 -8
16 -41 -19 -94 -13 -20 -27 -49 -30 -63 -4 -15 -18 -32 -32 -38 -14 -6 -45
-28 -69 -48 l-44 -35 -20 23 c-27 33 -26 36 19 59 97 49 168 247 111 308 -12
12 -28 23 -38 24 -116 10 -162 1 -162 -31 0 -29 21 -40 84 -43 102 -5 100 -49
-10 -166 l-62 -67 -22 21 c-23 23 -20 44 6 44 29 0 13 18 -23 25 -79 15 -93
38 -38 61 49 20 45 40 -10 49 -34 5 -51 14 -67 36 -23 31 -64 40 -70 14 -2
-11 -25 2 -83 45 -90 67 -145 90 -219 90 -57 0 -131 -30 -183 -74 -37 -31 -45
-24 -34 26 10 41 -1 58 -36 58 -29 0 -42 -25 -36 -71 3 -23 -1 -54 -10 -76
-16 -40 -149 -185 -180 -196 -10 -4 -41 2 -70 13 -65 25 -67 25 -67 -3 0 -30
27 -55 68 -63 38 -8 38 -8 12 -44 -25 -35 -90 -170 -90 -187 0 -24 -17 -13
-31 18 -20 49 -138 163 -196 190 l-51 23 23 28 c13 15 27 37 30 49 10 32 -3
84 -28 111 -27 29 -123 68 -166 68 -30 0 -45 19 -35 45 4 9 31 27 60 41 82 39
65 77 -29 67 -43 -5 -47 -4 -47 16 0 36 -19 61 -45 61 -27 0 -36 -10 -44 -54
-5 -24 -17 -37 -54 -56 -26 -14 -49 -31 -52 -39 -9 -23 19 -43 69 -48 42 -5
46 -8 40 -27 -4 -11 -7 -21 -8 -22 0 0 -31 -15 -68 -34 -60 -30 -69 -32 -97
-20 -64 26 -122 70 -133 100 -11 34 -50 49 -73 30 -12 -10 -15 -39 -15 -136 0
-68 -2 -124 -4 -124 -20 0 -176 34 -234 52 -52 15 -71 25 -68 35 3 7 85 115
182 239 l177 225 91 -5 c50 -3 294 -11 541 -16z m3435 -145 l0 -155 -40 20
-40 20 0 135 0 135 40 0 40 0 0 -155z m-4900 -331 c14 -262 23 -477 21 -479
-1 -2 -22 6 -46 17 l-43 21 -7 96 c-24 342 -52 807 -48 814 2 4 25 7 51 7 l48
0 24 -476z m3396 439 c-10 -10 -19 5 -10 18 6 11 8 11 12 0 2 -7 1 -15 -2 -18z
m894 -21 c0 -18 -84 -181 -91 -176 -5 3 -46 5 -91 5 -138 0 -294 -51 -480
-156 -53 -30 -100 -55 -105 -55 -4 0 -5 89 -2 197 3 109 7 198 8 198 314 0
761 -7 761 -13z m-853 -79 c-3 -10 -5 -2 -5 17 0 19 2 27 5 18 2 -10 2 -26 0
-35z m-49 -9 c-3 -14 -5 -12 -10 9 -3 19 -2 25 4 19 6 -6 8 -18 6 -28z m-13
-113 c0 -76 -12 -90 -14 -15 -1 47 3 74 12 74 1 0 2 -27 2 -59z m62 12 c-3
-10 -5 -2 -5 17 0 19 2 27 5 18 2 -10 2 -26 0 -35z m721 -49 c30 -8 28 -20
-13 -83 -52 -81 -52 -93 -1 -208 102 -230 153 -433 143 -577 -7 -108 -52 -200
-115 -234 -37 -21 -85 -83 -106 -137 -2 -5 -16 2 -32 16 -42 39 -83 57 -180
80 -71 17 -95 28 -140 64 -30 25 -86 59 -125 77 l-71 33 7 61 c5 49 3 63 -10
74 -14 12 -15 43 -9 279 3 146 7 276 8 289 1 19 28 38 156 108 85 46 191 98
235 115 96 38 203 56 253 43z m-2756 -105 c15 -6 30 -19 33 -27 7 -19 -31 -75
-66 -96 -25 -15 -30 -15 -74 4 l-47 20 7 43 c12 72 20 80 74 74 26 -3 59 -11
73 -18z m1858 -63 c0 -63 -1 -64 -31 -75 -46 -16 -49 -14 -39 19 7 26 60 119
68 120 1 0 2 -29 2 -64z m-2075 34 c29 -32 6 -47 -45 -30 -46 15 -49 22 -17
38 32 16 42 14 62 -8z m-250 -31 c69 -37 224 -102 320 -134 146 -50 239 -101
302 -164 100 -100 148 -224 160 -416 7 -116 10 -110 -88 -165 -35 -19 -104
-74 -154 -122 l-92 -87 -59 44 c-83 63 -245 142 -339 166 -83 20 -204 26 -287
14 l-46 -7 -11 38 c-26 94 -7 160 87 302 94 143 126 247 138 450 4 62 10 111
13 110 3 -2 29 -15 56 -29z m2422 -26 c-3 -10 -5 -2 -5 17 0 19 2 27 5 18 2
-10 2 -26 0 -35z m70 -45 c-2 -18 -4 -4 -4 32 0 36 2 50 4 33 2 -18 2 -48 0
-65z m-70 -25 c-3 -10 -5 -4 -5 12 0 17 2 24 5 18 2 -7 2 -21 0 -30z m69 -38
c1 -14 -2 -25 -7 -25 -5 0 -9 11 -9 25 0 33 15 33 16 0z m-181 -182 c-12 -339
-11 -333 -34 -349 -16 -11 -21 -26 -21 -58 l0 -43 -71 -10 c-38 -5 -72 -6 -75
-2 -2 4 0 27 6 51 18 80 12 189 -16 279 -41 137 -42 125 13 178 46 44 159 110
190 111 10 0 11 -36 8 -157z m105 45 l-5 -73 -3 59 c-3 52 1 86 10 86 2 0 1
-33 -2 -72z m31 -22 c11 -13 12 -46 0 -46 -11 0 -22 52 -19 94 1 31 1 31 5 -4
3 -19 9 -39 14 -44z m-22 -123 c-1 -63 -15 -80 -15 -19 0 31 4 56 8 56 4 0 8
-17 7 -37z m22 -168 l2 -40 7 40 7 40 2 -47 c1 -38 -2 -46 -14 -42 -8 4 -15 1
-15 -6 0 -10 -3 -10 -14 -1 -11 9 -15 9 -18 -1 -3 -7 -5 21 -6 62 -1 51 2 69
8 55 8 -18 9 -18 10 5 l1 25 14 -25 c8 -14 15 -43 16 -65z m21 53 c-7 -7 -12
-8 -12 -2 0 14 12 26 19 19 2 -3 -1 -11 -7 -17z m1649 -24 c118 -60 243 -394
226 -607 -6 -83 -39 -189 -72 -232 -39 -52 -131 -116 -203 -140 -87 -31 -217
-51 -409 -65 -130 -10 -161 -9 -212 4 -62 16 -158 61 -200 94 -22 18 -23 20
-7 49 38 74 29 159 -26 245 -25 40 -29 54 -23 88 10 56 40 97 115 150 57 41
69 46 95 38 58 -16 177 -11 245 11 144 46 225 128 273 278 30 91 34 98 62 105
38 8 102 0 136 -18z m-5057 -30 l76 -35 0 -140 c0 -173 -6 -179 -108 -104 -18
13 -37 25 -41 27 -12 4 -23 288 -12 288 5 0 43 -16 85 -36z m-174 -144 c0 -80
-3 -112 -12 -114 -163 -47 -246 -148 -268 -327 -10 -82 -2 -196 16 -244 7 -16
2 -17 -42 -12 -41 4 -54 11 -81 42 -26 30 -33 50 -43 118 -7 45 -11 127 -8
182 8 190 77 282 296 396 70 36 130 67 135 68 4 0 7 -49 7 -109z m3606 -81
c-3 -34 -6 -77 -6 -95 0 -37 -4 -39 -92 -49 l-58 -6 0 99 c0 54 3 102 7 105 3
4 40 7 81 7 l75 0 -7 -61z m-1260 -54 c253 -48 453 -165 521 -303 34 -70 39
-176 10 -230 -34 -63 -123 -139 -209 -181 -116 -55 -162 -63 -310 -51 -164 13
-305 12 -348 -3 -36 -12 -59 -42 -129 -166 -19 -34 -39 -60 -45 -58 -16 5 -36
71 -48 162 l-12 80 -86 85 c-98 96 -120 135 -120 212 0 169 227 401 445 454
70 17 239 17 331 -1z m-1712 -32 c57 -23 66 -29 51 -38 -58 -34 -84 -56 -118
-100 -111 -144 -144 -283 -98 -405 12 -30 21 -65 21 -78 0 -18 -44 -138 -54
-150 -2 -1 -23 5 -47 13 -76 27 -171 44 -274 49 -118 5 -173 25 -239 86 -69
64 -91 124 -91 250 0 99 2 109 34 178 73 155 199 213 298 137 83 -63 131 -58
244 26 38 28 81 55 96 59 39 13 97 4 177 -27z m2730 25 c3 -7 7 -36 10 -64 l5
-51 -62 -29 c-121 -58 -253 -184 -191 -184 9 0 49 18 88 39 243 134 487 183
657 132 35 -11 89 -24 119 -30 118 -24 148 -39 201 -103 93 -111 116 -184 83
-254 -24 -49 -146 -157 -226 -199 -168 -89 -324 -86 -677 11 l-166 46 -95 -12
c-197 -25 -236 -28 -261 -23 -26 5 -25 5 26 56 105 106 137 235 85 354 l-22
53 41 69 c58 98 84 126 145 156 80 39 232 60 240 33z m391 -60 c5 -4 -8 -8
-28 -8 -30 0 -37 4 -37 20 0 18 3 18 28 8 15 -7 31 -15 37 -20z m-2595 -19
c41 -11 105 -36 144 -55 85 -43 216 -132 216 -148 -1 -6 -9 -36 -20 -66 -42
-118 -20 -203 83 -333 35 -44 27 -61 -47 -105 -73 -44 -162 -70 -279 -82 -115
-12 -175 -8 -373 22 l-142 21 -59 -21 c-58 -21 -135 -28 -167 -16 -23 9 -20
36 13 101 42 86 44 111 15 200 -20 60 -24 89 -19 126 13 105 112 267 189 312
109 64 305 83 446 44z m-1458 -549 c51 0 54 -2 96 -50 43 -49 122 -98 187
-115 17 -4 75 -9 130 -10 77 -2 123 -10 200 -33 55 -17 101 -36 104 -43 19
-58 111 -81 213 -54 100 28 106 28 253 0 145 -27 592 -65 761 -65 82 0 93 -2
99 -19 11 -34 56 -71 88 -71 22 0 41 12 74 45 l45 44 441 11 c981 23 1848 87
2182 160 22 5 110 16 195 25 266 27 382 50 478 95 47 23 94 48 104 57 10 9 20
14 22 12 2 -2 6 -134 8 -292 4 -334 18 -293 -127 -362 -447 -212 -1480 -345
-3220 -416 -642 -26 -1142 12 -1740 133 -262 52 -660 158 -703 186 -32 21 -38
284 -16 678 l7 112 33 -14 c18 -8 57 -14 86 -14z m4609 -56 c10 -9 50 -33 91
-55 40 -21 69 -39 65 -39 -4 0 -81 -9 -170 -19 -89 -11 -189 -22 -222 -25 -58
-5 -59 -5 -25 8 70 26 136 64 180 105 51 45 57 47 81 25z m-2606 -96 c2 -7 5
-43 7 -80 l4 -68 -186 1 c-188 0 -194 3 -85 34 61 17 181 82 205 109 15 19 49
21 55 4z m1048 -3 c47 -19 175 -19 292 0 125 20 148 19 281 -15 64 -17 163
-36 218 -44 l101 -13 -65 -6 c-249 -26 -1600 -69 -1600 -52 0 4 9 23 21 41 32
52 53 54 350 40 167 -8 179 -8 245 13 37 13 80 29 94 36 14 8 26 14 26 15 1 0
18 -7 37 -15z m2626 -571 c65 -83 46 -361 -38 -540 -46 -99 -88 -137 -220
-200 -151 -71 -216 -90 -386 -109 -313 -35 -633 -103 -736 -157 -93 -48 -310
-77 -659 -88 -302 -10 -473 -30 -605 -71 -89 -27 -205 -23 -278 10 -59 27
-162 29 -407 6 -91 -8 -202 -15 -247 -15 -99 0 -286 24 -408 52 -237 54 -308
71 -402 99 -149 43 -280 59 -523 65 -165 4 -234 9 -298 24 -115 27 -186 63
-213 106 -25 41 -87 89 -217 169 -131 80 -183 161 -198 307 -5 55 8 197 21
218 2 4 66 -12 142 -35 76 -23 154 -46 173 -51 l34 -10 -36 -21 c-20 -12 -49
-40 -64 -62 -25 -39 -26 -46 -22 -130 11 -188 108 -305 303 -367 183 -58 572
-93 716 -65 183 36 326 176 300 293 -12 51 -38 95 -71 120 -17 12 -30 25 -30
28 0 4 28 3 63 -1 140 -17 492 -31 647 -26 131 5 161 4 146 -6 -51 -31 -106
-92 -122 -133 -24 -64 -10 -101 79 -204 127 -146 194 -179 450 -215 194 -29
401 -31 552 -6 357 59 480 139 493 323 7 100 -24 192 -84 252 -26 25 -55 48
-65 51 -33 11 -20 25 21 25 22 0 188 13 368 29 180 17 372 33 427 36 55 4 109
9 119 12 13 4 3 -14 -31 -53 -122 -142 -136 -265 -37 -340 46 -36 205 -90 304
-105 110 -16 300 -6 410 21 92 23 240 89 317 141 262 179 285 373 63 532 -14
10 -20 20 -15 23 38 18 222 92 232 93 6 1 21 -11 32 -25z m-5651 -734 c53 -32
113 -75 132 -95 97 -100 111 -111 181 -138 108 -42 199 -55 439 -61 234 -6
386 -26 520 -70 222 -73 622 -146 798 -146 42 0 186 9 320 21 l243 21 85 -31
c106 -38 212 -42 301 -11 116 41 284 60 578 65 225 4 470 29 589 60 32 8 89
29 126 45 112 49 313 92 675 145 237 35 408 90 539 174 65 41 112 42 127 4 25
-64 41 -219 45 -453 3 -135 5 -254 6 -265 7 -101 -71 -176 -305 -291 -505
-249 -1000 -364 -1732 -405 -257 -14 -1570 -7 -1785 10 -719 56 -1229 171
-1579 357 -147 78 -221 133 -333 246 -105 107 -119 133 -138 263 -12 89 -12
396 0 495 8 61 14 79 35 98 15 12 28 22 31 22 3 0 49 -27 102 -60z"/>
<path d="M2673 8772 c-24 -16 -34 -53 -24 -85 24 -72 225 -226 473 -363 164
-91 582 -335 597 -349 24 -23 -543 85 -813 155 -61 16 -164 47 -230 70 -65 22
-120 39 -122 37 -2 -2 6 -34 19 -71 l23 -68 68 -29 c165 -71 437 -138 821
-203 l130 -22 -50 -23 c-201 -92 -562 -183 -835 -211 -57 -6 -110 -16 -117
-22 -18 -15 -16 -79 3 -106 20 -29 70 -29 289 3 194 28 402 77 555 130 175 61
413 189 487 262 49 48 55 79 21 110 -55 50 -335 219 -553 333 -167 88 -274
151 -380 226 -188 132 -319 221 -336 226 -9 4 -20 3 -26 0z"/>
<path d="M6277 8677 c-53 -34 -189 -125 -304 -203 -114 -77 -309 -198 -433
-269 -361 -205 -390 -226 -390 -291 0 -46 57 -88 245 -179 237 -115 696 -251
945 -280 45 -5 60 -3 77 12 12 10 35 26 52 35 71 39 33 57 -291 138 -380 95
-681 183 -746 219 -8 4 46 11 120 14 267 14 534 51 690 98 105 31 198 79 198
101 0 6 11 23 25 40 28 34 33 68 9 68 -9 0 -117 -25 -240 -55 -229 -57 -488
-100 -665 -112 -60 -3 -99 -2 -99 3 0 12 93 66 230 134 339 169 634 375 675
474 16 39 20 102 6 110 -4 3 -51 -22 -104 -57z"/>
<path d="M5732 5180 c0 -14 2 -19 5 -12 2 6 2 18 0 25 -3 6 -5 1 -5 -13z"/>
<path d="M5741 4894 c0 -11 3 -14 6 -6 3 7 2 16 -1 19 -3 4 -6 -2 -5 -13z"/>
<path d="M5726 4705 c-3 -9 -6 -29 -5 -43 1 -22 3 -19 10 12 10 40 6 60 -5 31z"/>
<path d="M3763 4973 c-18 -7 -16 -38 2 -53 20 -17 87 -19 92 -3 3 7 -8 24 -23
38 -26 24 -45 29 -71 18z"/>
<path d="M4961 4966 c-19 -23 -10 -61 14 -61 16 0 20 7 20 34 0 38 -15 50 -34
27z"/>
<path d="M4054 4941 c-21 -16 -52 -43 -68 -60 -19 -20 -39 -31 -57 -31 -40 0
-79 -17 -79 -35 0 -19 41 -46 83 -54 42 -9 45 -30 13 -125 -14 -42 -26 -87
-26 -100 0 -32 26 -53 48 -39 28 17 42 58 53 150 6 52 16 94 25 104 8 9 55 31
104 49 108 39 125 54 90 82 -25 20 -72 21 -139 2 l-25 -7 27 29 c56 60 20 86
-49 35z"/>
<path d="M5287 4916 c-11 -28 37 -68 75 -64 17 2 33 8 35 14 12 38 -96 86
-110 50z"/>
<path d="M4850 4904 c0 -9 16 -32 36 -52 35 -35 37 -35 50 -17 19 26 18 71 -2
79 -9 3 -31 6 -50 6 -24 0 -34 -4 -34 -16z"/>
<path d="M4187 4755 c-32 -7 -61 -15 -64 -19 -21 -20 83 -64 155 -66 32 0 48
44 27 76 -17 27 -32 28 -118 9z"/>
<path d="M5703 4040 c0 -25 2 -35 4 -22 2 12 2 32 0 45 -2 12 -4 2 -4 -23z"/>
<path d="M5682 4020 c0 -14 2 -19 5 -12 2 6 2 18 0 25 -3 6 -5 1 -5 -13z"/>
</g>
</svg>
